<svg width="1114" height="757" viewBox="0 0 1114 757" fill="none" xmlns="http://www.w3.org/2000/svg">
<g clip-path="url(#clip0_92_162)">
<rect width="1114" height="757" fill="#FF5757"/>
<path d="M470.089 239.462C468.94 239.871 468.066 240.476 467.466 241.278C467.317 241.479 467.18 241.815 467.057 242.287C467.01 242.659 466.953 242.941 466.887 243.131C466.746 243.422 466.736 245.026 466.858 247.943C467.064 250.849 467.325 254.299 467.639 258.292C467.954 262.285 468.329 266.454 468.764 270.799C469.189 275.054 469.687 278.751 470.256 281.89C470.771 284.486 471.659 286.993 472.921 289.41C474.258 291.728 476.181 293.107 478.69 293.548C480.556 293.514 482.251 293.043 483.775 292.133C485.374 291.123 486.503 289.664 487.162 287.756C487.878 285.566 488.038 283.35 487.644 281.106C487.324 278.762 487.261 276.434 487.455 274.122C488.649 274.166 489.956 274.06 491.375 273.804C492.878 273.538 494.386 273.317 495.898 273.141C497.411 272.965 498.885 272.84 500.323 272.764C501.844 272.679 503.211 272.749 504.424 272.974C506.323 277.516 507.172 282.179 506.971 286.965C506.761 291.66 505.708 295.995 503.811 299.97C501.914 303.945 499.239 307.37 495.787 310.244C492.41 313.017 488.415 314.717 483.804 315.345C480.824 316.149 477.716 316.51 474.478 316.429C471.249 316.437 468.18 315.924 465.272 314.888C462.354 313.762 459.803 312.044 457.616 309.734C455.514 307.414 454.105 304.372 453.389 300.609C452.894 297.37 452.429 293.99 451.991 290.469C451.554 286.948 451.076 283.02 450.557 278.684C450.113 274.248 449.614 269.269 449.062 263.747C448.584 258.125 448.02 251.642 447.37 244.3C447.048 242.781 446.936 241.237 447.034 239.669C447.207 238 447.478 236.457 447.846 235.041C448.367 232.599 449.073 230.319 449.966 228.201C450.943 226.073 452.153 224.146 453.595 222.422C454.447 221.59 455.396 220.885 456.443 220.305C457.481 219.635 458.57 219.051 459.71 218.552C463.439 216.745 467.207 215.758 471.015 215.59C474.823 215.422 478.447 215.963 481.886 217.211C485.401 218.36 488.634 220.091 491.585 222.403C494.536 224.716 496.983 227.5 498.923 230.755C500.855 233.918 502.188 237.472 502.923 241.417C503.657 245.361 503.561 249.493 502.633 253.813C499.597 254.899 496.558 255.527 493.515 255.697C490.547 255.767 487.435 255.671 484.179 255.408C483.755 253.718 483.392 251.791 483.091 249.628C482.873 247.455 482.464 245.488 481.863 243.726C481.252 241.874 480.3 240.428 479.006 239.388C477.796 238.338 475.977 238 473.55 238.373C472.476 238.681 471.322 239.044 470.089 239.462Z" fill="white"/>
<path d="M542.688 214.782C542.688 215.509 542.723 216.164 542.792 216.745C542.931 219.364 543 221.364 543 222.745C543 224.055 542.896 225.036 542.688 225.691C542.549 226.273 542.272 226.6 541.856 226.673C541.44 226.673 540.85 226.673 540.087 226.673C539.324 226.6 538.319 226.6 537.071 226.673C535.892 226.746 533.846 226.818 530.934 226.891C528.09 226.964 524.138 227 519.076 227C514.083 227 507.391 226.927 499 226.782V224.818C499.208 219.364 499.381 214.455 499.52 210.091C499.659 205.654 499.728 201.546 499.728 197.764C499.797 193.909 499.832 190.2 499.832 186.636C499.832 183.073 499.797 179.436 499.728 175.727C499.659 172.018 499.589 168.091 499.52 163.945C499.451 159.727 499.381 155.073 499.312 149.982C500.005 149.691 501.08 149.473 502.537 149.327C503.993 149.109 505.553 149 507.217 149C508.882 149 510.511 149.109 512.106 149.327C513.701 149.545 514.984 149.873 515.955 150.309C515.816 155.036 515.747 159.909 515.747 164.927C515.816 169.873 515.886 174.855 515.955 179.873C516.024 184.891 516.059 189.909 516.059 194.927C516.128 199.873 516.128 204.673 516.059 209.327V209.436C516.544 209.291 517.446 209.254 518.764 209.327C520.15 209.327 521.745 209.364 523.548 209.436C525.351 209.509 527.258 209.618 529.269 209.764C531.35 209.836 533.291 209.909 535.095 209.982C536.967 210.055 538.596 210.127 539.983 210.2C541.44 210.2 542.445 210.164 543 210.091C543 210.891 542.965 211.691 542.896 212.491C542.827 213.218 542.757 213.982 542.688 214.782Z" fill="white"/>
<path d="M557.372 284.929C557.439 284.13 557.439 283.222 557.372 282.205C557.034 282.423 556.594 282.677 556.052 282.968C555.579 283.258 555.173 283.549 554.835 283.839C553.414 284.929 551.824 285.8 550.065 286.454C548.306 287.107 546.479 287.47 544.584 287.543C542.758 287.616 540.965 287.398 539.206 286.889C537.447 286.381 535.857 285.473 534.436 284.166C533.759 283.512 533.218 282.169 532.812 280.136C532.474 278.03 532.237 275.524 532.101 272.619C532.034 269.714 532 266.555 532 263.142C532.068 259.656 532.135 256.17 532.203 252.685C532.271 249.126 532.338 245.713 532.406 242.445C532.474 239.177 532.44 236.308 532.304 233.839C534.672 233.476 536.77 233.331 538.597 233.403C540.491 233.403 542.622 233.403 544.99 233.403C545.126 235.074 545.193 236.962 545.193 239.068C545.193 241.174 545.16 243.353 545.092 245.604C545.092 247.855 545.092 250.106 545.092 252.358C545.16 254.609 545.261 256.715 545.396 258.676C545.464 259.547 545.532 260.528 545.599 261.617C545.667 262.634 545.768 263.65 545.904 264.667C546.107 265.684 546.343 266.592 546.614 267.39C546.952 268.189 547.392 268.807 547.933 269.242C548.001 269.315 548.069 269.351 548.136 269.351C548.204 269.351 548.272 269.387 548.339 269.46C548.881 269.751 549.659 270.005 550.674 270.223C551.756 270.368 552.805 270.295 553.82 270.005C554.835 269.642 555.748 268.988 556.56 268.044C557.372 267.027 557.845 265.539 557.981 263.578C558.116 261.109 558.15 258.64 558.082 256.17C558.014 253.701 557.913 251.268 557.778 248.872C557.71 246.403 557.642 243.97 557.575 241.573C557.575 239.177 557.744 236.78 558.082 234.384V233.948C559.232 233.585 560.213 233.367 561.025 233.295C561.905 233.222 562.784 233.222 563.664 233.295C564.544 233.295 565.524 233.331 566.607 233.403C567.69 233.476 569.043 233.44 570.667 233.295C570.667 242.227 570.734 251.159 570.869 260.092C571.072 269.024 571.039 278.284 570.768 287.87C569.956 287.797 569.279 287.761 568.738 287.761C568.197 287.688 567.69 287.652 567.216 287.652C566.742 287.652 566.235 287.688 565.694 287.761C565.152 287.761 564.476 287.797 563.664 287.87C563.393 287.87 562.92 287.942 562.243 288.088C561.566 288.16 560.89 288.233 560.213 288.305C559.537 288.378 558.928 288.378 558.387 288.305C557.845 288.305 557.575 288.197 557.575 287.979C557.439 286.744 557.372 285.727 557.372 284.929Z" fill="white"/>
<path d="M584.349 160.451C593.767 160.36 602.927 160.817 611.827 161.821C612 164.835 612.043 168.305 611.957 172.232C611.957 176.158 611.741 179.766 611.309 183.053C609.667 182.688 607.636 182.551 605.217 182.642C602.797 182.734 599.557 182.871 595.496 183.053H595.237H595.107C595.107 183.144 595.064 183.236 594.977 183.327C594.977 183.327 594.977 183.373 594.977 183.464C594.891 183.921 594.804 184.651 594.718 185.656C594.718 186.569 594.718 188.076 594.718 190.176C594.718 192.185 594.718 194.879 594.718 198.258C594.804 201.546 594.891 205.838 594.977 211.134C595.064 216.34 595.15 222.641 595.237 230.038C595.323 237.344 595.452 245.973 595.625 255.927V256.064V256.201C594.07 256.475 592.342 256.658 590.441 256.749C588.626 256.749 586.768 256.749 584.867 256.749C583.053 256.749 581.238 256.749 579.423 256.749C577.609 256.749 575.924 256.886 574.368 257.16C574.282 256.795 574.282 255.151 574.368 252.229C574.455 249.306 574.498 244.969 574.498 239.215C574.584 233.371 574.541 225.928 574.368 216.888C574.282 207.847 573.98 196.934 573.461 184.149L573.332 184.012C572.295 183.464 570.998 183.144 569.443 183.053C567.888 182.871 566.332 182.779 564.777 182.779C563.222 182.688 561.796 182.642 560.5 182.642C559.203 182.642 558.296 182.551 557.778 182.368C557.605 182.003 557.432 181.09 557.259 179.629C557.173 178.168 557.086 176.432 557 174.423C557 172.323 557 170.086 557 167.711C557 165.337 557.086 163.054 557.259 160.862C557.259 160.771 557.216 160.725 557.13 160.725C557.13 160.725 557.13 160.68 557.13 160.588C565.943 160.497 575.017 160.451 584.349 160.451Z" fill="white"/>
<path d="M626.601 239.44C625.424 239.839 624.527 240.437 623.908 241.235C623.754 241.434 623.612 241.769 623.483 242.24C623.432 242.612 623.372 242.893 623.304 243.083C623.158 243.373 623.137 244.976 623.242 247.893C623.432 250.8 623.675 254.251 623.969 258.245C624.263 262.24 624.618 266.411 625.032 270.759C625.438 275.015 625.921 278.715 626.482 281.858C626.99 284.457 627.88 286.97 629.153 289.397C630.503 291.724 632.459 293.118 635.019 293.578C636.927 293.559 638.662 293.101 640.225 292.203C641.865 291.206 643.029 289.756 643.715 287.853C644.461 285.67 644.64 283.455 644.253 281.209C643.942 278.863 643.894 276.535 644.107 274.225C645.327 274.279 646.663 274.183 648.115 273.938C649.653 273.683 651.195 273.474 652.741 273.31C654.287 273.146 655.795 273.032 657.265 272.968C658.819 272.894 660.216 272.975 661.453 273.21C663.363 277.765 664.198 282.434 663.96 287.216C663.714 291.908 662.608 296.234 660.643 300.194C658.677 304.153 655.921 307.556 652.374 310.402C648.905 313.149 644.812 314.818 640.096 315.41C637.046 316.19 633.867 316.527 630.56 316.421C627.26 316.404 624.128 315.868 621.164 314.81C618.191 313.661 615.595 311.923 613.377 309.597C611.245 307.261 609.826 304.209 609.12 300.442C608.637 297.199 608.184 293.816 607.761 290.293C607.338 286.77 606.877 282.839 606.376 278.5C605.953 274.062 605.477 269.081 604.95 263.556C604.5 257.931 603.969 251.446 603.355 244.1C603.036 242.579 602.932 241.034 603.043 239.467C603.231 237.801 603.518 236.261 603.904 234.847C604.453 232.41 605.19 230.136 606.117 228.025C607.13 225.905 608.379 223.989 609.864 222.276C610.74 221.451 611.715 220.753 612.788 220.182C613.853 219.52 614.97 218.944 616.138 218.454C619.96 216.676 623.817 215.718 627.709 215.58C631.601 215.442 635.3 216.011 638.806 217.286C642.389 218.461 645.681 220.217 648.68 222.552C651.68 224.887 654.16 227.689 656.121 230.958C658.073 234.136 659.411 237.699 660.135 241.648C660.858 245.597 660.732 249.727 659.754 254.039C656.645 255.101 653.535 255.705 650.425 255.852C647.392 255.899 644.213 255.779 640.888 255.491C640.466 253.797 640.109 251.868 639.816 249.704C639.608 247.53 639.203 245.56 638.601 243.794C637.99 241.937 637.027 240.484 635.712 239.434C634.483 238.375 632.627 238.023 630.144 238.378C629.045 238.677 627.863 239.031 626.601 239.44Z" fill="white"/>
<path d="M440.22 335.9H442.26V339.02C442.26 343.22 441.08 347.3 438.1 349.1L436.46 347.14C439.22 345.48 440.22 342.16 440.22 339.02V335.9ZM440.74 335.9H442.8V338.82C442.8 342.02 443.64 345.04 446.22 346.46L444.68 348.56C441.68 346.88 440.74 343.06 440.74 338.82V335.9ZM450.18 334.3H452.72V352.82H450.18V334.3ZM447.96 341.5H451.02V343.64H447.96V341.5ZM446.18 334.58H448.68V351.98H446.18V334.58ZM455.218 348.62H471.978V350.78H455.218V348.62ZM462.238 345.12H464.898V349.5H462.238V345.12ZM457.098 335.5H470.098V341.66H459.778V344.78H457.138V339.58H467.458V337.6H457.098V335.5ZM457.138 343.72H470.518V345.86H457.138V343.72ZM473.597 343.3H490.377V345.4H473.597V343.3ZM480.777 344.68H483.477V348.58H480.777V344.68ZM475.557 350.36H488.537V352.5H475.557V350.36ZM475.557 346.96H478.237V350.9H475.557V346.96ZM481.977 334.64C485.957 334.64 488.637 336.14 488.637 338.48C488.637 340.84 485.957 342.32 481.977 342.32C477.977 342.32 475.317 340.84 475.317 338.48C475.317 336.14 477.977 334.64 481.977 334.64ZM481.977 336.74C479.637 336.74 478.177 337.34 478.177 338.48C478.177 339.62 479.637 340.2 481.977 340.2C484.317 340.2 485.777 339.62 485.777 338.48C485.777 337.34 484.317 336.74 481.977 336.74ZM508.796 334.3H511.476V352.82H508.796V334.3ZM510.876 341.2H514.156V343.4H510.876V341.2ZM497.516 335.76H500.156V340.26H503.876V335.76H506.516V348.54H497.516V335.76ZM500.156 342.32V346.4H503.876V342.32H500.156ZM528.055 334.28H530.735V352.86H528.055V334.28ZM520.755 335.58C523.555 335.58 525.615 338.14 525.615 342.18C525.615 346.26 523.555 348.82 520.755 348.82C517.955 348.82 515.895 346.26 515.895 342.18C515.895 338.14 517.955 335.58 520.755 335.58ZM520.755 338C519.375 338 518.435 339.46 518.435 342.18C518.435 344.94 519.375 346.42 520.755 346.42C522.135 346.42 523.055 344.94 523.055 342.18C523.055 339.46 522.135 338 520.755 338ZM535.653 335.92H547.313V338.04H535.653V335.92ZM533.773 348.46H550.513V350.64H533.773V348.46ZM546.193 335.92H548.813V338.06C548.813 340.76 548.813 343.32 547.953 347.36L545.333 347.12C546.193 343.38 546.193 340.68 546.193 338.06V335.92ZM546.753 341V342.96L535.433 343.52L535.113 341.38L546.753 341ZM563.993 335.36H566.312V336.7C566.312 340.72 563.453 344.28 558.653 345.22L557.513 343.02C561.693 342.3 563.993 339.36 563.993 336.7V335.36ZM564.533 335.36H566.833V336.7C566.833 339.42 569.113 342.3 573.313 343.02L572.173 345.22C567.373 344.28 564.533 340.78 564.533 336.7V335.36ZM557.133 348.4H573.893V350.56H557.133V348.4ZM576.231 346.48H577.791C580.911 346.48 583.291 346.44 586.051 346L586.291 348.12C583.491 348.56 580.971 348.64 577.791 348.64H576.231V346.48ZM576.231 335.84H584.931V338H578.911V347.18H576.231V335.84ZM578.271 340.98H584.671V343.06H578.271V340.98ZM587.351 334.3H590.031V352.82H587.351V334.3ZM589.431 341.32H592.711V343.52H589.431V341.32ZM599.129 334.84C601.949 334.84 604.069 336.6 604.069 339.08C604.069 341.54 601.949 343.3 599.129 343.3C596.309 343.3 594.189 341.54 594.189 339.08C594.189 336.6 596.309 334.84 599.129 334.84ZM599.129 337C597.769 337 596.749 337.76 596.749 339.08C596.749 340.4 597.769 341.16 599.129 341.16C600.489 341.16 601.489 340.4 601.489 339.08C601.489 337.76 600.489 337 599.129 337ZM606.629 334.3H609.309V343.56H606.629V334.3ZM596.949 344.32H609.309V349.4H599.589V351.64H596.989V347.48H606.669V346.38H596.949V344.32ZM596.989 350.56H609.769V352.62H596.989V350.56ZM615.847 349.051L615.755 349.833C615.689 350.429 615.57 351.035 615.4 351.651C615.234 352.271 615.059 352.842 614.874 353.362C614.69 353.883 614.54 354.293 614.427 354.591H612.694C612.76 354.302 612.85 353.909 612.964 353.412C613.082 352.915 613.196 352.356 613.305 351.736C613.414 351.116 613.487 350.486 613.525 349.847L613.575 349.051H615.847ZM624.778 334.94H636.518V337.02H624.778V334.94ZM634.918 334.94H637.538V336.58C637.538 338.2 637.538 339.94 637.058 342.12L634.438 341.88C634.918 339.74 634.918 338.18 634.918 336.58V334.94ZM635.718 338.06V339.88L624.558 340.32L624.258 338.3L635.718 338.06ZM622.758 341.44H639.438V343.52H622.758V341.44ZM624.558 344.6H637.638V349.5H627.218V351.5H624.578V347.62H634.998V346.6H624.558V344.6ZM624.578 350.6H638.258V352.62H624.578V350.6ZM653.956 334.28H656.616V352.86H653.956V334.28ZM651.056 340.96H654.496V343.1H651.056V340.96ZM641.756 346.38H643.276C646.276 346.38 648.656 346.32 651.336 345.86L651.576 348.02C648.836 348.48 646.356 348.58 643.276 348.58H641.756V346.38ZM641.716 335.86H650.056V342.82H644.396V347.04H641.756V340.72H647.436V337.98H641.716V335.86ZM672.375 334.28H675.035V352.86H672.375V334.28ZM669.255 339.84H674.015V342H669.255V339.84ZM669.255 343.68H674.015V345.84H669.255V343.68ZM663.795 339.1H665.875V340.06C665.875 343.96 664.195 347.9 660.835 349.4L659.415 347.36C662.415 345.98 663.795 342.84 663.795 340.06V339.1ZM664.375 339.1H666.435V340.06C666.435 342.74 667.855 345.76 670.855 347.1L669.435 349.14C666.055 347.68 664.375 343.86 664.375 340.06V339.1ZM660.035 337.32H670.135V339.42H660.035V337.32ZM663.795 334.72H666.455V338.4H663.795V334.72Z" fill="white"/>
</g>
<defs>
<clipPath id="clip0_92_162">
<rect width="1114" height="757" fill="white"/>
</clipPath>
</defs>
</svg>
